<svg width="150" height="15" viewBox="0 0 150 15" fill="none" xmlns="http://www.w3.org/2000/svg">
<path d="M5.698 1.088H7.224L10.108 11H8.092L7.476 8.732H3.178L1.974 11H0L5.698 1.088ZM7.07 7.22L6.118 3.188L3.99 7.22H7.07ZM16.7955 6.296C16.6275 6.09067 16.4408 5.92733 16.2355 5.806C16.0395 5.68467 15.8295 5.624 15.6055 5.624C15.2975 5.624 15.0128 5.68 14.7515 5.792C14.4995 5.904 14.2755 6.05333 14.0795 6.24C13.8835 6.42667 13.7202 6.64133 13.5895 6.884C13.4682 7.12667 13.3888 7.37867 13.3515 7.64C13.3142 7.90133 13.3235 8.15333 13.3795 8.396C13.4355 8.63867 13.5335 8.85333 13.6735 9.04C13.8228 9.22667 14.0095 9.376 14.2335 9.488C14.4668 9.6 14.7375 9.656 15.0455 9.656C15.3068 9.656 15.5542 9.60467 15.7875 9.502C16.0302 9.39 16.2448 9.23133 16.4315 9.026L17.3835 10.23C17.1875 10.398 16.9728 10.5427 16.7395 10.664C16.5062 10.7853 16.2728 10.8833 16.0395 10.958C15.8062 11.0327 15.5822 11.084 15.3675 11.112C15.1622 11.1493 14.9848 11.168 14.8355 11.168C14.3315 11.168 13.8648 11.084 13.4355 10.916C13.0155 10.748 12.6608 10.51 12.3715 10.202C12.0915 9.894 11.8862 9.52533 11.7555 9.096C11.6248 8.65733 11.5968 8.172 11.6715 7.64C11.7462 7.108 11.9095 6.62733 12.1615 6.198C12.4135 5.75933 12.7262 5.386 13.0995 5.078C13.4728 4.77 13.8928 4.532 14.3595 4.364C14.8355 4.196 15.3255 4.112 15.8295 4.112C16.2588 4.112 16.6788 4.196 17.0895 4.364C17.5002 4.52267 17.8408 4.77933 18.1115 5.134L16.7955 6.296ZM24.0394 6.296C23.8714 6.09067 23.6848 5.92733 23.4794 5.806C23.2834 5.68467 23.0734 5.624 22.8494 5.624C22.5414 5.624 22.2568 5.68 21.9954 5.792C21.7434 5.904 21.5194 6.05333 21.3234 6.24C21.1274 6.42667 20.9641 6.64133 20.8334 6.884C20.7121 7.12667 20.6328 7.37867 20.5954 7.64C20.5581 7.90133 20.5674 8.15333 20.6234 8.396C20.6794 8.63867 20.7774 8.85333 20.9174 9.04C21.0668 9.22667 21.2534 9.376 21.4774 9.488C21.7108 9.6 21.9814 9.656 22.2894 9.656C22.5508 9.656 22.7981 9.60467 23.0314 9.502C23.2741 9.39 23.4888 9.23133 23.6754 9.026L24.6274 10.23C24.4314 10.398 24.2168 10.5427 23.9834 10.664C23.7501 10.7853 23.5168 10.8833 23.2834 10.958C23.0501 11.0327 22.8261 11.084 22.6114 11.112C22.4061 11.1493 22.2288 11.168 22.0794 11.168C21.5754 11.168 21.1088 11.084 20.6794 10.916C20.2594 10.748 19.9048 10.51 19.6154 10.202C19.3354 9.894 19.1301 9.52533 18.9994 9.096C18.8688 8.65733 18.8408 8.172 18.9154 7.64C18.9901 7.108 19.1534 6.62733 19.4054 6.198C19.6574 5.75933 19.9701 5.386 20.3434 5.078C20.7168 4.77 21.1368 4.532 21.6034 4.364C22.0794 4.196 22.5694 4.112 23.0734 4.112C23.5028 4.112 23.9228 4.196 24.3334 4.364C24.7441 4.52267 25.0848 4.77933 25.3554 5.134L24.0394 6.296ZM27.7553 8.228C27.746 8.48 27.7787 8.704 27.8533 8.9C27.9373 9.096 28.0493 9.264 28.1893 9.404C28.3293 9.53467 28.4973 9.63733 28.6933 9.712C28.8893 9.78667 29.104 9.824 29.3373 9.824C29.7573 9.824 30.1213 9.74 30.4293 9.572C30.7467 9.39467 31.0267 9.17533 31.2693 8.914L32.3473 9.824C31.89 10.3093 31.4047 10.6547 30.8913 10.86C30.378 11.0653 29.8553 11.168 29.3233 11.168C28.8193 11.168 28.3527 11.084 27.9233 10.916C27.5033 10.748 27.1487 10.51 26.8593 10.202C26.5793 9.894 26.374 9.52533 26.2433 9.096C26.1127 8.65733 26.0847 8.172 26.1593 7.64C26.234 7.108 26.3973 6.62733 26.6493 6.198C26.9013 5.75933 27.214 5.386 27.5873 5.078C27.9607 4.77 28.3807 4.532 28.8473 4.364C29.3233 4.196 29.8133 4.112 30.3173 4.112C31.26 4.112 31.974 4.42933 32.4593 5.064C32.9447 5.68933 33.108 6.59 32.9493 7.766L32.8793 8.228H27.7553ZM31.3813 6.968C31.4467 6.47333 31.3487 6.086 31.0873 5.806C30.826 5.51667 30.4293 5.372 29.8973 5.372C29.3933 5.372 28.9733 5.51667 28.6373 5.806C28.3013 6.09533 28.068 6.48267 27.9373 6.968H31.3813ZM38.8184 6.142C38.5571 5.68467 38.1511 5.456 37.6004 5.456C37.4884 5.456 37.3717 5.47 37.2504 5.498C37.1291 5.526 37.0171 5.568 36.9144 5.624C36.8117 5.68 36.7231 5.75467 36.6484 5.848C36.5831 5.94133 36.5411 6.04867 36.5224 6.17C36.4944 6.37533 36.5597 6.52467 36.7184 6.618C36.8864 6.71133 37.1011 6.79067 37.3624 6.856C37.6237 6.92133 37.9037 6.99133 38.2024 7.066C38.5104 7.13133 38.7857 7.23867 39.0284 7.388C39.2804 7.528 39.4764 7.724 39.6164 7.976C39.7657 8.228 39.8077 8.57333 39.7424 9.012C39.6864 9.41333 39.5511 9.754 39.3364 10.034C39.1311 10.3047 38.8791 10.524 38.5804 10.692C38.2817 10.86 37.9551 10.9813 37.6004 11.056C37.2457 11.1307 36.8957 11.168 36.5504 11.168C36.0277 11.168 35.5564 11.0933 35.1364 10.944C34.7164 10.7947 34.3617 10.524 34.0724 10.132L35.3464 9.082C35.5331 9.32467 35.7337 9.52533 35.9484 9.684C36.1724 9.83333 36.4617 9.908 36.8164 9.908C36.9377 9.908 37.0637 9.894 37.1944 9.866C37.3344 9.838 37.4651 9.79133 37.5864 9.726C37.7077 9.66067 37.8104 9.58133 37.8944 9.488C37.9784 9.38533 38.0297 9.26867 38.0484 9.138C38.0857 8.90467 38.0204 8.732 37.8524 8.62C37.6937 8.508 37.4837 8.41933 37.2224 8.354C36.9611 8.27933 36.6764 8.214 36.3684 8.158C36.0697 8.09267 35.7944 7.99467 35.5424 7.864C35.2904 7.724 35.0897 7.53267 34.9404 7.29C34.8004 7.04733 34.7631 6.71133 34.8284 6.282C34.8844 5.90867 35.0057 5.58667 35.1924 5.316C35.3884 5.036 35.6264 4.80733 35.9064 4.63C36.1864 4.45267 36.4944 4.322 36.8304 4.238C37.1664 4.154 37.5024 4.112 37.8384 4.112C38.2864 4.112 38.7157 4.19133 39.1264 4.35C39.5464 4.49933 39.8637 4.76067 40.0784 5.134L38.8184 6.142ZM45.5291 6.142C45.2678 5.68467 44.8618 5.456 44.3111 5.456C44.1991 5.456 44.0824 5.47 43.9611 5.498C43.8398 5.526 43.7278 5.568 43.6251 5.624C43.5224 5.68 43.4338 5.75467 43.3591 5.848C43.2938 5.94133 43.2518 6.04867 43.2331 6.17C43.2051 6.37533 43.2704 6.52467 43.4291 6.618C43.5971 6.71133 43.8118 6.79067 44.0731 6.856C44.3344 6.92133 44.6144 6.99133 44.9131 7.066C45.2211 7.13133 45.4964 7.23867 45.7391 7.388C45.9911 7.528 46.1871 7.724 46.3271 7.976C46.4764 8.228 46.5184 8.57333 46.4531 9.012C46.3971 9.41333 46.2618 9.754 46.0471 10.034C45.8418 10.3047 45.5898 10.524 45.2911 10.692C44.9924 10.86 44.6658 10.9813 44.3111 11.056C43.9564 11.1307 43.6064 11.168 43.2611 11.168C42.7384 11.168 42.2671 11.0933 41.8471 10.944C41.4271 10.7947 41.0724 10.524 40.7831 10.132L42.0571 9.082C42.2438 9.32467 42.4444 9.52533 42.6591 9.684C42.8831 9.83333 43.1724 9.908 43.5271 9.908C43.6484 9.908 43.7744 9.894 43.9051 9.866C44.0451 9.838 44.1758 9.79133 44.2971 9.726C44.4184 9.66067 44.5211 9.58133 44.6051 9.488C44.6891 9.38533 44.7404 9.26867 44.7591 9.138C44.7964 8.90467 44.7311 8.732 44.5631 8.62C44.4044 8.508 44.1944 8.41933 43.9331 8.354C43.6718 8.27933 43.3871 8.214 43.0791 8.158C42.7804 8.09267 42.5051 7.99467 42.2531 7.864C42.0011 7.724 41.8004 7.53267 41.6511 7.29C41.5111 7.04733 41.4738 6.71133 41.5391 6.282C41.5951 5.90867 41.7164 5.58667 41.9031 5.316C42.0991 5.036 42.3371 4.80733 42.6171 4.63C42.8971 4.45267 43.2051 4.322 43.5411 4.238C43.8771 4.154 44.2131 4.112 44.5491 4.112C44.9971 4.112 45.4264 4.19133 45.8371 4.35C46.2571 4.49933 46.5744 4.76067 46.7891 5.134L45.5291 6.142ZM48.1098 7.64C48.1845 7.108 48.3478 6.62733 48.5998 6.198C48.8518 5.75933 49.1645 5.386 49.5378 5.078C49.9111 4.77 50.3311 4.532 50.7978 4.364C51.2738 4.196 51.7638 4.112 52.2678 4.112C52.7718 4.112 53.2338 4.196 53.6538 4.364C54.0738 4.532 54.4238 4.77 54.7038 5.078C54.9931 5.386 55.2031 5.75933 55.3338 6.198C55.4645 6.62733 55.4925 7.108 55.4178 7.64C55.3431 8.172 55.1798 8.65733 54.9278 9.096C54.6758 9.52533 54.3631 9.894 53.9898 10.202C53.6258 10.51 53.2058 10.748 52.7298 10.916C52.2631 11.084 51.7778 11.168 51.2738 11.168C50.7698 11.168 50.3031 11.084 49.8738 10.916C49.4538 10.748 49.0991 10.51 48.8098 10.202C48.5298 9.894 48.3245 9.52533 48.1938 9.096C48.0631 8.65733 48.0351 8.172 48.1098 7.64ZM49.7898 7.64C49.7525 7.90133 49.7618 8.15333 49.8178 8.396C49.8738 8.63867 49.9718 8.85333 50.1118 9.04C50.2611 9.22667 50.4478 9.376 50.6718 9.488C50.9051 9.6 51.1758 9.656 51.4838 9.656C51.7918 9.656 52.0765 9.6 52.3378 9.488C52.5991 9.376 52.8278 9.22667 53.0238 9.04C53.2198 8.85333 53.3785 8.63867 53.4998 8.396C53.6211 8.15333 53.7005 7.90133 53.7378 7.64C53.7751 7.37867 53.7658 7.12667 53.7098 6.884C53.6538 6.64133 53.5511 6.42667 53.4018 6.24C53.2618 6.05333 53.0751 5.904 52.8418 5.792C52.6178 5.68 52.3518 5.624 52.0438 5.624C51.7358 5.624 51.4511 5.68 51.1898 5.792C50.9378 5.904 50.7138 6.05333 50.5178 6.24C50.3218 6.42667 50.1585 6.64133 50.0278 6.884C49.9065 7.12667 49.8271 7.37867 49.7898 7.64ZM57.9567 4.28H59.6367L59.4827 5.344H59.5107C59.7534 4.952 60.0614 4.64867 60.4347 4.434C60.8174 4.21933 61.2327 4.112 61.6807 4.112C61.7834 4.112 61.8814 4.12133 61.9747 4.14C62.0681 4.15867 62.1661 4.182 62.2687 4.21L62.0307 5.834C61.9001 5.79667 61.7694 5.76867 61.6387 5.75C61.5081 5.722 61.3774 5.708 61.2467 5.708C60.8547 5.708 60.5281 5.78267 60.2667 5.932C60.0054 6.072 59.7954 6.23533 59.6367 6.422C59.4874 6.60867 59.3801 6.79533 59.3147 6.982C59.2494 7.16867 59.2121 7.30867 59.2027 7.402L58.6987 11H57.0187L57.9567 4.28ZM63.9161 4.28H65.5961L64.6581 11H62.9781L63.9161 4.28ZM64.0001 1.998C64.0375 1.72733 64.1681 1.494 64.3921 1.298C64.6255 1.09267 64.8961 0.99 65.2041 0.99C65.5121 0.99 65.7595 1.088 65.9461 1.284C66.1328 1.47067 66.2028 1.70867 66.1561 1.998C66.1095 2.28733 65.9695 2.53 65.7361 2.726C65.5028 2.91267 65.2321 3.006 64.9241 3.006C64.6161 3.006 64.3735 2.908 64.1961 2.712C64.0281 2.50667 63.9628 2.26867 64.0001 1.998ZM68.7988 8.228C68.7895 8.48 68.8222 8.704 68.8968 8.9C68.9808 9.096 69.0928 9.264 69.2328 9.404C69.3728 9.53467 69.5408 9.63733 69.7368 9.712C69.9328 9.78667 70.1475 9.824 70.3808 9.824C70.8008 9.824 71.1648 9.74 71.4728 9.572C71.7902 9.39467 72.0702 9.17533 72.3128 8.914L73.3908 9.824C72.9335 10.3093 72.4482 10.6547 71.9348 10.86C71.4215 11.0653 70.8988 11.168 70.3668 11.168C69.8628 11.168 69.3962 11.084 68.9668 10.916C68.5468 10.748 68.1922 10.51 67.9028 10.202C67.6228 9.894 67.4175 9.52533 67.2868 9.096C67.1562 8.65733 67.1282 8.172 67.2028 7.64C67.2775 7.108 67.4408 6.62733 67.6928 6.198C67.9448 5.75933 68.2575 5.386 68.6308 5.078C69.0042 4.77 69.4242 4.532 69.8908 4.364C70.3668 4.196 70.8568 4.112 71.3608 4.112C72.3035 4.112 73.0175 4.42933 73.5028 5.064C73.9882 5.68933 74.1515 6.59 73.9928 7.766L73.9228 8.228H68.7988ZM72.4248 6.968C72.4902 6.47333 72.3922 6.086 72.1308 5.806C71.8695 5.51667 71.4728 5.372 70.9408 5.372C70.4368 5.372 70.0168 5.51667 69.6808 5.806C69.3448 6.09533 69.1115 6.48267 68.9808 6.968H72.4248ZM79.8619 6.142C79.6006 5.68467 79.1946 5.456 78.6439 5.456C78.5319 5.456 78.4152 5.47 78.2939 5.498C78.1726 5.526 78.0606 5.568 77.9579 5.624C77.8552 5.68 77.7666 5.75467 77.6919 5.848C77.6266 5.94133 77.5846 6.04867 77.5659 6.17C77.5379 6.37533 77.6032 6.52467 77.7619 6.618C77.9299 6.71133 78.1446 6.79067 78.4059 6.856C78.6672 6.92133 78.9472 6.99133 79.2459 7.066C79.5539 7.13133 79.8292 7.23867 80.0719 7.388C80.3239 7.528 80.5199 7.724 80.6599 7.976C80.8092 8.228 80.8512 8.57333 80.7859 9.012C80.7299 9.41333 80.5946 9.754 80.3799 10.034C80.1746 10.3047 79.9226 10.524 79.6239 10.692C79.3252 10.86 78.9986 10.9813 78.6439 11.056C78.2892 11.1307 77.9392 11.168 77.5939 11.168C77.0712 11.168 76.5999 11.0933 76.1799 10.944C75.7599 10.7947 75.4052 10.524 75.1159 10.132L76.3899 9.082C76.5766 9.32467 76.7772 9.52533 76.9919 9.684C77.2159 9.83333 77.5052 9.908 77.8599 9.908C77.9812 9.908 78.1072 9.894 78.2379 9.866C78.3779 9.838 78.5086 9.79133 78.6299 9.726C78.7512 9.66067 78.8539 9.58133 78.9379 9.488C79.0219 9.38533 79.0732 9.26867 79.0919 9.138C79.1292 8.90467 79.0639 8.732 78.8959 8.62C78.7372 8.508 78.5272 8.41933 78.2659 8.354C78.0046 8.27933 77.7199 8.214 77.4119 8.158C77.1132 8.09267 76.8379 7.99467 76.5859 7.864C76.3339 7.724 76.1332 7.53267 75.9839 7.29C75.8439 7.04733 75.8066 6.71133 75.8719 6.282C75.9279 5.90867 76.0492 5.58667 76.2359 5.316C76.4319 5.036 76.6699 4.80733 76.9499 4.63C77.2299 4.45267 77.5379 4.322 77.8739 4.238C78.2099 4.154 78.5459 4.112 78.8819 4.112C79.3299 4.112 79.7592 4.19133 80.1699 4.35C80.5899 4.49933 80.9072 4.76067 81.1219 5.134L79.8619 6.142ZM91.2752 10.076H91.2332C90.9345 10.4587 90.5845 10.7387 90.1832 10.916C89.7912 11.084 89.3712 11.168 88.9232 11.168C88.6152 11.168 88.3165 11.126 88.0272 11.042C87.7472 10.958 87.5045 10.832 87.2992 10.664C87.0939 10.496 86.9399 10.286 86.8372 10.034C86.7345 9.782 86.7065 9.488 86.7532 9.152C86.8279 8.61067 87.0285 8.186 87.3552 7.878C87.6819 7.56067 88.0692 7.32267 88.5172 7.164C88.9652 7.00533 89.4365 6.90733 89.9312 6.87C90.4352 6.83267 90.8972 6.814 91.3172 6.814H91.7372L91.7512 6.632C91.8165 6.212 91.7185 5.89933 91.4572 5.694C91.1959 5.47933 90.8412 5.372 90.3932 5.372C90.0385 5.372 89.6979 5.43733 89.3712 5.568C89.0445 5.68933 88.7552 5.85733 88.5032 6.072L87.7472 5.19C88.1672 4.80733 88.6385 4.532 89.1612 4.364C89.6932 4.196 90.2252 4.112 90.7572 4.112C91.2332 4.112 91.6252 4.168 91.9332 4.28C92.2505 4.38267 92.5025 4.518 92.6892 4.686C92.8852 4.854 93.0252 5.05 93.1092 5.274C93.1932 5.48867 93.2445 5.708 93.2632 5.932C93.2819 6.156 93.2772 6.37533 93.2492 6.59C93.2305 6.79533 93.2119 6.97733 93.1932 7.136L92.6612 11H91.1492L91.2752 10.076ZM91.4712 7.99H91.1212C90.8879 7.99 90.6219 7.99933 90.3232 8.018C90.0339 8.03667 89.7539 8.08333 89.4832 8.158C89.2219 8.22333 88.9932 8.326 88.7972 8.466C88.6012 8.59667 88.4845 8.78333 88.4472 9.026C88.4285 9.18467 88.4472 9.32 88.5032 9.432C88.5592 9.53467 88.6385 9.62333 88.7412 9.698C88.8439 9.77267 88.9605 9.82867 89.0912 9.866C89.2219 9.894 89.3572 9.908 89.4972 9.908C90.0759 9.908 90.5239 9.77267 90.8412 9.502C91.1585 9.222 91.3499 8.844 91.4152 8.368L91.4712 7.99ZM95.8967 4.28H97.4927L97.3387 5.358H97.3667C97.5721 5.022 97.8567 4.73267 98.2207 4.49C98.5847 4.238 99.0467 4.112 99.6067 4.112C100.055 4.112 100.423 4.18667 100.713 4.336C101.011 4.48533 101.24 4.68133 101.399 4.924C101.557 5.16667 101.655 5.44667 101.693 5.764C101.73 6.08133 101.725 6.41267 101.679 6.758L101.091 11H99.4107L99.8867 7.598C99.9147 7.41133 99.9334 7.206 99.9427 6.982C99.9521 6.74867 99.9287 6.534 99.8727 6.338C99.8261 6.13267 99.7281 5.96467 99.5787 5.834C99.4294 5.694 99.2101 5.624 98.9207 5.624C98.6407 5.624 98.3981 5.67067 98.1927 5.764C97.9874 5.85733 97.8101 5.98333 97.6607 6.142C97.5207 6.30067 97.4041 6.48267 97.3107 6.688C97.2267 6.89333 97.1707 7.108 97.1427 7.332L96.6387 11H94.9587L95.8967 4.28ZM108.948 9.992H108.92C108.612 10.4027 108.238 10.7013 107.8 10.888C107.37 11.0747 106.918 11.168 106.442 11.168C105.919 11.168 105.466 11.0793 105.084 10.902C104.701 10.7153 104.388 10.4633 104.146 10.146C103.903 9.82867 103.735 9.45533 103.642 9.026C103.548 8.59667 103.539 8.13467 103.614 7.64C103.679 7.14533 103.824 6.68333 104.048 6.254C104.272 5.82467 104.547 5.45133 104.874 5.134C105.21 4.81667 105.588 4.56933 106.008 4.392C106.437 4.20533 106.89 4.112 107.366 4.112C107.683 4.112 107.958 4.14467 108.192 4.21C108.425 4.27533 108.626 4.35933 108.794 4.462C108.962 4.56467 109.102 4.67667 109.214 4.798C109.326 4.91 109.419 5.022 109.494 5.134H109.536L110.208 0.415999H111.888L110.404 11H108.808L108.948 9.992ZM105.294 7.64C105.256 7.90133 105.266 8.15333 105.322 8.396C105.378 8.63867 105.476 8.85333 105.616 9.04C105.765 9.22667 105.952 9.376 106.176 9.488C106.409 9.6 106.68 9.656 106.988 9.656C107.296 9.656 107.58 9.6 107.842 9.488C108.103 9.376 108.332 9.22667 108.528 9.04C108.724 8.85333 108.882 8.63867 109.004 8.396C109.125 8.15333 109.204 7.90133 109.242 7.64C109.279 7.37867 109.27 7.12667 109.214 6.884C109.158 6.64133 109.055 6.42667 108.906 6.24C108.766 6.05333 108.579 5.904 108.346 5.792C108.122 5.68 107.856 5.624 107.548 5.624C107.24 5.624 106.955 5.68 106.694 5.792C106.442 5.904 106.218 6.05333 106.022 6.24C105.826 6.42667 105.662 6.64133 105.532 6.884C105.41 7.12667 105.331 7.37867 105.294 7.64ZM118.913 0.415999H120.593L119.921 5.134H119.963C120.065 5.022 120.191 4.91 120.341 4.798C120.49 4.67667 120.663 4.56467 120.859 4.462C121.064 4.35933 121.293 4.27533 121.545 4.21C121.797 4.14467 122.081 4.112 122.399 4.112C122.875 4.112 123.299 4.20533 123.673 4.392C124.046 4.56933 124.354 4.81667 124.597 5.134C124.839 5.45133 125.007 5.82467 125.101 6.254C125.194 6.68333 125.208 7.14533 125.143 7.64C125.068 8.13467 124.923 8.59667 124.709 9.026C124.503 9.45533 124.237 9.82867 123.911 10.146C123.584 10.4633 123.201 10.7153 122.763 10.902C122.324 11.0793 121.848 11.168 121.335 11.168C120.859 11.168 120.429 11.0747 120.047 10.888C119.664 10.7013 119.379 10.4027 119.193 9.992H119.165L119.025 11H117.429L118.913 0.415999ZM123.463 7.64C123.5 7.37867 123.491 7.12667 123.435 6.884C123.379 6.64133 123.276 6.42667 123.127 6.24C122.987 6.05333 122.8 5.904 122.567 5.792C122.343 5.68 122.077 5.624 121.769 5.624C121.461 5.624 121.176 5.68 120.915 5.792C120.663 5.904 120.439 6.05333 120.243 6.24C120.047 6.42667 119.883 6.64133 119.753 6.884C119.631 7.12667 119.552 7.37867 119.515 7.64C119.477 7.90133 119.487 8.15333 119.543 8.396C119.599 8.63867 119.697 8.85333 119.837 9.04C119.986 9.22667 120.173 9.376 120.397 9.488C120.63 9.6 120.901 9.656 121.209 9.656C121.517 9.656 121.801 9.6 122.063 9.488C122.324 9.376 122.553 9.22667 122.749 9.04C122.945 8.85333 123.103 8.63867 123.225 8.396C123.346 8.15333 123.425 7.90133 123.463 7.64ZM131.063 10.076H131.021C130.722 10.4587 130.372 10.7387 129.971 10.916C129.579 11.084 129.159 11.168 128.711 11.168C128.403 11.168 128.104 11.126 127.815 11.042C127.535 10.958 127.292 10.832 127.087 10.664C126.882 10.496 126.728 10.286 126.625 10.034C126.522 9.782 126.494 9.488 126.541 9.152C126.616 8.61067 126.816 8.186 127.143 7.878C127.47 7.56067 127.857 7.32267 128.305 7.164C128.753 7.00533 129.224 6.90733 129.719 6.87C130.223 6.83267 130.685 6.814 131.105 6.814H131.525L131.539 6.632C131.604 6.212 131.506 5.89933 131.245 5.694C130.984 5.47933 130.629 5.372 130.181 5.372C129.826 5.372 129.486 5.43733 129.159 5.568C128.832 5.68933 128.543 5.85733 128.291 6.072L127.535 5.19C127.955 4.80733 128.426 4.532 128.949 4.364C129.481 4.196 130.013 4.112 130.545 4.112C131.021 4.112 131.413 4.168 131.721 4.28C132.038 4.38267 132.29 4.518 132.477 4.686C132.673 4.854 132.813 5.05 132.897 5.274C132.981 5.48867 133.032 5.708 133.051 5.932C133.07 6.156 133.065 6.37533 133.037 6.59C133.018 6.79533 133 6.97733 132.981 7.136L132.449 11H130.937L131.063 10.076ZM131.259 7.99H130.909C130.676 7.99 130.41 7.99933 130.111 8.018C129.822 8.03667 129.542 8.08333 129.271 8.158C129.01 8.22333 128.781 8.326 128.585 8.466C128.389 8.59667 128.272 8.78333 128.235 9.026C128.216 9.18467 128.235 9.32 128.291 9.432C128.347 9.53467 128.426 9.62333 128.529 9.698C128.632 9.77267 128.748 9.82867 128.879 9.866C129.01 9.894 129.145 9.908 129.285 9.908C129.864 9.908 130.312 9.77267 130.629 9.502C130.946 9.222 131.138 8.844 131.203 8.368L131.259 7.99ZM142.601 4.28L141.747 10.398C141.663 11.0047 141.509 11.5507 141.285 12.036C141.07 12.5307 140.781 12.946 140.417 13.282C140.062 13.6273 139.633 13.8933 139.129 14.08C138.625 14.2667 138.046 14.36 137.393 14.36C136.767 14.36 136.184 14.2807 135.643 14.122C135.111 13.9633 134.635 13.674 134.215 13.254L135.419 11.882C135.708 12.19 136.021 12.428 136.357 12.596C136.702 12.764 137.113 12.848 137.589 12.848C137.99 12.848 138.335 12.792 138.625 12.68C138.914 12.568 139.152 12.414 139.339 12.218C139.535 12.022 139.689 11.784 139.801 11.504C139.913 11.2333 139.992 10.93 140.039 10.594L140.095 10.104H140.067C139.777 10.4307 139.423 10.678 139.003 10.846C138.583 11.0047 138.163 11.084 137.743 11.084C137.239 11.084 136.791 10.9953 136.399 10.818C136.016 10.6313 135.699 10.384 135.447 10.076C135.204 9.768 135.031 9.404 134.929 8.984C134.826 8.564 134.807 8.116 134.873 7.64C134.938 7.14533 135.078 6.68333 135.293 6.254C135.507 5.82467 135.778 5.45133 136.105 5.134C136.441 4.81667 136.823 4.56933 137.253 4.392C137.691 4.20533 138.172 4.112 138.695 4.112C139.171 4.112 139.6 4.20533 139.983 4.392C140.365 4.57867 140.65 4.87733 140.837 5.288H140.865L141.005 4.28H142.601ZM138.821 5.624C138.522 5.624 138.242 5.67533 137.981 5.778C137.729 5.87133 137.505 6.00667 137.309 6.184C137.113 6.352 136.945 6.562 136.805 6.814C136.674 7.05667 136.59 7.32733 136.553 7.626C136.515 7.89667 136.529 8.14867 136.595 8.382C136.669 8.61533 136.781 8.82067 136.931 8.998C137.08 9.17533 137.267 9.31533 137.491 9.418C137.724 9.52067 137.981 9.572 138.261 9.572C138.569 9.572 138.853 9.52067 139.115 9.418C139.376 9.31533 139.605 9.18 139.801 9.012C139.997 8.83467 140.155 8.62467 140.277 8.382C140.407 8.13933 140.496 7.878 140.543 7.598C140.617 7.01 140.501 6.534 140.193 6.17C139.894 5.806 139.437 5.624 138.821 5.624ZM148.311 6.142C148.05 5.68467 147.644 5.456 147.093 5.456C146.981 5.456 146.864 5.47 146.743 5.498C146.622 5.526 146.51 5.568 146.407 5.624C146.304 5.68 146.216 5.75467 146.141 5.848C146.076 5.94133 146.034 6.04867 146.015 6.17C145.987 6.37533 146.052 6.52467 146.211 6.618C146.379 6.71133 146.594 6.79067 146.855 6.856C147.116 6.92133 147.396 6.99133 147.695 7.066C148.003 7.13133 148.278 7.23867 148.521 7.388C148.773 7.528 148.969 7.724 149.109 7.976C149.258 8.228 149.3 8.57333 149.235 9.012C149.179 9.41333 149.044 9.754 148.829 10.034C148.624 10.3047 148.372 10.524 148.073 10.692C147.774 10.86 147.448 10.9813 147.093 11.056C146.738 11.1307 146.388 11.168 146.043 11.168C145.52 11.168 145.049 11.0933 144.629 10.944C144.209 10.7947 143.854 10.524 143.565 10.132L144.839 9.082C145.026 9.32467 145.226 9.52533 145.441 9.684C145.665 9.83333 145.954 9.908 146.309 9.908C146.43 9.908 146.556 9.894 146.687 9.866C146.827 9.838 146.958 9.79133 147.079 9.726C147.2 9.66067 147.303 9.58133 147.387 9.488C147.471 9.38533 147.522 9.26867 147.541 9.138C147.578 8.90467 147.513 8.732 147.345 8.62C147.186 8.508 146.976 8.41933 146.715 8.354C146.454 8.27933 146.169 8.214 145.861 8.158C145.562 8.09267 145.287 7.99467 145.035 7.864C144.783 7.724 144.582 7.53267 144.433 7.29C144.293 7.04733 144.256 6.71133 144.321 6.282C144.377 5.90867 144.498 5.58667 144.685 5.316C144.881 5.036 145.119 4.80733 145.399 4.63C145.679 4.45267 145.987 4.322 146.323 4.238C146.659 4.154 146.995 4.112 147.331 4.112C147.779 4.112 148.208 4.19133 148.619 4.35C149.039 4.49933 149.356 4.76067 149.571 5.134L148.311 6.142Z" fill="#4F4F4F"/>
</svg>
