<svg width="158" height="54" viewBox="0 0 158 54" fill="none" xmlns="http://www.w3.org/2000/svg">
<path d="M28.92 27.04H27.88C27.24 28.44 26.72 29.32 26.2 30C24.84 31.72 22.68 32.44 19.44 32.44H16.64C13.72 32.44 13.04 32.16 13.04 30.64V12.08C13.04 9 13.52 8.48 16.8 8.28V7.52H5.48V8.28C8.6 8.52 8.96 9.08 8.96 12.16V29.4C8.96 32.44 8.44 33.08 5.48 33.24V34H27L28.92 27.04ZM58.4941 34V33.24C56.4141 33 55.8541 32.16 54.7341 29.56L44.8941 7.04H44.0941L35.8541 26.56C33.4941 32.16 33.1341 33 30.8141 33.24V34H38.7741V33.24C36.8541 33.24 35.9741 32.84 35.9741 31.6C35.9741 31.12 36.1341 30.44 36.3341 29.92L38.1741 25.36H48.6541L50.2941 29.12C50.7741 30.24 51.0541 31.32 51.0541 31.92C51.0541 32.28 50.8141 32.72 50.4941 32.88C50.0141 33.16 49.7341 33.24 48.2941 33.24V34H58.4941ZM48.0941 23.72H38.8541L43.4541 12.72L48.0941 23.72ZM84.4409 7.52H76.2809V8.28C77.8809 8.44 79.1609 8.36 79.1609 9.92C79.1609 10.6 78.8809 11.6 78.4009 12.8L72.5209 27.56L66.4409 13.88C65.2409 11.2 64.8809 10.24 64.8809 9.6C64.8809 8.8 65.4009 8.44 66.6809 8.36L67.8009 8.28V7.52H57.2009V8.28C59.2009 8.32 59.8009 8.8 61.5209 12.68L71.2809 34.44H71.8809L80.7609 11.92C81.9209 8.96 82.8409 8.32 84.4409 8.28V7.52ZM110.108 27.24H108.988C107.188 31.48 105.468 32.52 99.7481 32.52H98.3081C95.3481 32.52 94.2681 32.32 94.2681 30.64V20.92H100.308C103.748 20.92 104.348 21.44 104.828 24.8H105.748V15.44H104.828C104.348 18.6 103.748 19.28 100.308 19.28H94.2681V10.48C94.2681 9.2 94.5481 9.04 95.6681 9.04H100.908C105.548 9.04 106.468 9.64 107.068 13.24H108.068L107.908 7.52H86.7081V8.28C89.7081 8.44 90.1881 9.04 90.1881 12V29.44C90.1881 32.52 89.7881 33.04 86.7081 33.24V34H108.268L110.108 27.24ZM137.881 34V33.24C136.121 33.08 135.281 32.84 134.121 31.36L126.121 21.24C131.121 20.48 133.361 18.16 133.361 14.68C133.361 12.92 132.721 10.96 131.401 9.88C129.681 8.48 126.841 7.52 123.041 7.52H112.161V8.28C115.241 8.52 115.561 9 115.561 11.96V29.04C115.561 32.56 115.161 33 112.161 33.24V34H123.201V33.24C120.121 33.04 119.641 32.56 119.641 29.52V21.76L121.881 21.68L131.401 34H137.881ZM119.641 10.68C119.641 9.28 120.321 9 121.681 9C126.641 9 129.001 10.76 129.001 14.36C129.001 16.36 128.161 18.12 126.721 18.92C124.881 19.92 123.481 20.2 119.641 20.28V10.68ZM151.561 34V33.24C148.281 33.12 147.641 32.52 147.641 29.52V11.96C147.641 8.92 148.201 8.44 151.561 8.28V7.52H139.681V8.28C143.081 8.48 143.561 8.8 143.561 11.96V29.52C143.561 32.64 143.041 33.12 139.681 33.24V34H151.561Z" fill="#4F4F4F"/>
<path d="M12.768 39.088H13.986L16.842 49H15.274L14.616 46.55H9.898L8.582 49H7.014L12.768 39.088ZM14.294 45.374L13.09 40.824H13.062L10.542 45.374H14.294ZM23.6474 44.128C23.4514 43.8853 23.2321 43.7033 22.9894 43.582C22.7561 43.4513 22.4621 43.386 22.1074 43.386C21.7621 43.386 21.4494 43.4513 21.1694 43.582C20.8988 43.7033 20.6608 43.876 20.4554 44.1C20.2501 44.3147 20.0821 44.5667 19.9514 44.856C19.8301 45.136 19.7461 45.43 19.6994 45.738C19.6528 46.046 19.6621 46.34 19.7274 46.62C19.7928 46.8907 19.9048 47.1287 20.0634 47.334C20.2221 47.5393 20.4228 47.7027 20.6654 47.824C20.9174 47.936 21.2068 47.992 21.5334 47.992C21.8881 47.992 22.2008 47.9313 22.4714 47.81C22.7421 47.6793 22.9988 47.4927 23.2414 47.25L24.0114 48.146C23.6288 48.51 23.2088 48.7713 22.7514 48.93C22.3034 49.0887 21.8368 49.168 21.3514 49.168C20.8381 49.168 20.3808 49.084 19.9794 48.916C19.5781 48.748 19.2468 48.5147 18.9854 48.216C18.7241 47.908 18.5374 47.544 18.4254 47.124C18.3134 46.6947 18.2948 46.2233 18.3694 45.71C18.4348 45.1967 18.5794 44.7253 18.8034 44.296C19.0368 43.8667 19.3261 43.498 19.6714 43.19C20.0261 42.882 20.4274 42.644 20.8754 42.476C21.3234 42.2987 21.8088 42.21 22.3314 42.21C22.8168 42.21 23.2648 42.2987 23.6754 42.476C24.0954 42.644 24.4454 42.9053 24.7254 43.26L23.6474 44.128ZM30.8213 44.128C30.6253 43.8853 30.406 43.7033 30.1633 43.582C29.93 43.4513 29.636 43.386 29.2813 43.386C28.936 43.386 28.6233 43.4513 28.3433 43.582C28.0727 43.7033 27.8347 43.876 27.6293 44.1C27.424 44.3147 27.256 44.5667 27.1253 44.856C27.004 45.136 26.92 45.43 26.8733 45.738C26.8267 46.046 26.836 46.34 26.9013 46.62C26.9667 46.8907 27.0787 47.1287 27.2373 47.334C27.396 47.5393 27.5967 47.7027 27.8393 47.824C28.0913 47.936 28.3807 47.992 28.7073 47.992C29.062 47.992 29.3747 47.9313 29.6453 47.81C29.916 47.6793 30.1727 47.4927 30.4153 47.25L31.1853 48.146C30.8027 48.51 30.3827 48.7713 29.9253 48.93C29.4773 49.0887 29.0107 49.168 28.5253 49.168C28.012 49.168 27.5547 49.084 27.1533 48.916C26.752 48.748 26.4207 48.5147 26.1593 48.216C25.898 47.908 25.7113 47.544 25.5993 47.124C25.4873 46.6947 25.4687 46.2233 25.5433 45.71C25.6087 45.1967 25.7533 44.7253 25.9773 44.296C26.2107 43.8667 26.5 43.498 26.8453 43.19C27.2 42.882 27.6013 42.644 28.0493 42.476C28.4973 42.2987 28.9827 42.21 29.5053 42.21C29.9907 42.21 30.4387 42.2987 30.8493 42.476C31.2693 42.644 31.6193 42.9053 31.8993 43.26L30.8213 44.128ZM33.9212 46.144C33.8839 46.4333 33.9119 46.6993 34.0052 46.942C34.0986 47.1753 34.2339 47.376 34.4112 47.544C34.5979 47.712 34.8172 47.8427 35.0692 47.936C35.3306 48.0293 35.6059 48.076 35.8952 48.076C36.2872 48.076 36.6372 47.9873 36.9452 47.81C37.2626 47.6233 37.5659 47.3807 37.8552 47.082L38.6952 47.81C37.8739 48.7153 36.8332 49.168 35.5732 49.168C35.0506 49.168 34.5886 49.0793 34.1872 48.902C33.7952 48.7247 33.4732 48.482 33.2212 48.174C32.9692 47.8567 32.7919 47.488 32.6892 47.068C32.5866 46.6387 32.5726 46.1767 32.6472 45.682C32.7126 45.1873 32.8619 44.73 33.0952 44.31C33.3286 43.8807 33.6179 43.512 33.9632 43.204C34.3179 42.8867 34.7146 42.6393 35.1532 42.462C35.6012 42.2847 36.0726 42.196 36.5672 42.196C37.1552 42.196 37.6359 42.2987 38.0092 42.504C38.3919 42.7093 38.6906 42.98 38.9052 43.316C39.1199 43.6427 39.2552 44.016 39.3112 44.436C39.3672 44.8467 39.3672 45.2667 39.3112 45.696L39.2412 46.144H33.9212ZM38.0372 45.136C38.0652 44.856 38.0559 44.5993 38.0092 44.366C37.9626 44.1327 37.8739 43.932 37.7432 43.764C37.6126 43.5867 37.4352 43.4513 37.2112 43.358C36.9872 43.2553 36.7166 43.204 36.3992 43.204C36.0912 43.204 35.8019 43.2647 35.5312 43.386C35.2606 43.498 35.0179 43.6473 34.8032 43.834C34.5979 44.0207 34.4299 44.2307 34.2992 44.464C34.1686 44.688 34.0892 44.912 34.0612 45.136H38.0372ZM44.9905 44.03C44.8692 43.8433 44.7059 43.6893 44.5005 43.568C44.3045 43.4373 44.0479 43.372 43.7305 43.372C43.4319 43.372 43.1612 43.4373 42.9185 43.568C42.6852 43.6893 42.5545 43.8713 42.5265 44.114C42.4985 44.31 42.5359 44.4687 42.6385 44.59C42.7505 44.7113 42.8859 44.8093 43.0445 44.884C43.2125 44.9587 43.3899 45.0147 43.5765 45.052C43.7632 45.0893 43.9265 45.122 44.0665 45.15C44.3279 45.2153 44.5705 45.2947 44.7945 45.388C45.0185 45.4813 45.2052 45.6027 45.3545 45.752C45.5132 45.9013 45.6252 46.0833 45.6905 46.298C45.7559 46.5127 45.7699 46.774 45.7325 47.082C45.6765 47.4553 45.5505 47.7773 45.3545 48.048C45.1679 48.3093 44.9345 48.524 44.6545 48.692C44.3745 48.86 44.0665 48.9813 43.7305 49.056C43.4039 49.1307 43.0772 49.168 42.7505 49.168C42.1999 49.168 41.7285 49.084 41.3365 48.916C40.9539 48.748 40.6272 48.44 40.3565 47.992L41.4065 47.208C41.5839 47.4133 41.7892 47.5953 42.0225 47.754C42.2559 47.9127 42.5545 47.992 42.9185 47.992C43.2452 47.992 43.5579 47.9267 43.8565 47.796C44.1552 47.656 44.3279 47.4413 44.3745 47.152C44.4025 46.9653 44.3652 46.8113 44.2625 46.69C44.1692 46.5687 44.0432 46.4753 43.8845 46.41C43.7352 46.3353 43.5672 46.2793 43.3805 46.242C43.2032 46.1953 43.0492 46.158 42.9185 46.13C42.6572 46.0647 42.4099 45.99 42.1765 45.906C41.9432 45.822 41.7425 45.71 41.5745 45.57C41.4065 45.43 41.2805 45.2527 41.1965 45.038C41.1219 44.8233 41.1079 44.5573 41.1545 44.24C41.2012 43.8947 41.3132 43.596 41.4905 43.344C41.6772 43.0827 41.9012 42.868 42.1625 42.7C42.4239 42.532 42.7132 42.406 43.0305 42.322C43.3479 42.238 43.6605 42.196 43.9685 42.196C44.4165 42.196 44.8319 42.28 45.2145 42.448C45.6065 42.616 45.8959 42.896 46.0825 43.288L44.9905 44.03ZM51.6312 44.03C51.5099 43.8433 51.3466 43.6893 51.1412 43.568C50.9452 43.4373 50.6886 43.372 50.3712 43.372C50.0726 43.372 49.8019 43.4373 49.5592 43.568C49.3259 43.6893 49.1952 43.8713 49.1672 44.114C49.1392 44.31 49.1766 44.4687 49.2792 44.59C49.3912 44.7113 49.5266 44.8093 49.6852 44.884C49.8532 44.9587 50.0306 45.0147 50.2172 45.052C50.4039 45.0893 50.5672 45.122 50.7072 45.15C50.9686 45.2153 51.2112 45.2947 51.4352 45.388C51.6592 45.4813 51.8459 45.6027 51.9952 45.752C52.1539 45.9013 52.2659 46.0833 52.3312 46.298C52.3966 46.5127 52.4106 46.774 52.3732 47.082C52.3172 47.4553 52.1912 47.7773 51.9952 48.048C51.8086 48.3093 51.5752 48.524 51.2952 48.692C51.0152 48.86 50.7072 48.9813 50.3712 49.056C50.0446 49.1307 49.7179 49.168 49.3912 49.168C48.8406 49.168 48.3692 49.084 47.9772 48.916C47.5946 48.748 47.2679 48.44 46.9972 47.992L48.0472 47.208C48.2246 47.4133 48.4299 47.5953 48.6632 47.754C48.8966 47.9127 49.1952 47.992 49.5592 47.992C49.8859 47.992 50.1986 47.9267 50.4972 47.796C50.7959 47.656 50.9686 47.4413 51.0152 47.152C51.0432 46.9653 51.0059 46.8113 50.9032 46.69C50.8099 46.5687 50.6839 46.4753 50.5252 46.41C50.3759 46.3353 50.2079 46.2793 50.0212 46.242C49.8439 46.1953 49.6899 46.158 49.5592 46.13C49.2979 46.0647 49.0506 45.99 48.8172 45.906C48.5839 45.822 48.3832 45.71 48.2152 45.57C48.0472 45.43 47.9212 45.2527 47.8372 45.038C47.7626 44.8233 47.7486 44.5573 47.7952 44.24C47.8419 43.8947 47.9539 43.596 48.1312 43.344C48.3179 43.0827 48.5419 42.868 48.8032 42.7C49.0646 42.532 49.3539 42.406 49.6712 42.322C49.9886 42.238 50.3012 42.196 50.6092 42.196C51.0572 42.196 51.4726 42.28 51.8552 42.448C52.2472 42.616 52.5366 42.896 52.7232 43.288L51.6312 44.03ZM55.5419 45.682C55.4953 46.018 55.4999 46.3307 55.5559 46.62C55.6213 46.9 55.7333 47.1427 55.8919 47.348C56.0506 47.544 56.2559 47.7027 56.5079 47.824C56.7693 47.936 57.0679 47.992 57.4039 47.992C57.7399 47.992 58.0479 47.936 58.3279 47.824C58.6173 47.7027 58.8693 47.544 59.0839 47.348C59.2986 47.1427 59.4759 46.9 59.6159 46.62C59.7653 46.3307 59.8633 46.018 59.9099 45.682C59.9566 45.346 59.9473 45.038 59.8819 44.758C59.8259 44.4687 59.7139 44.226 59.5459 44.03C59.3873 43.8247 59.1819 43.666 58.9299 43.554C58.6779 43.4327 58.3839 43.372 58.0479 43.372C57.7119 43.372 57.3993 43.4327 57.1099 43.554C56.8299 43.666 56.5779 43.8247 56.3539 44.03C56.1393 44.226 55.9619 44.4687 55.8219 44.758C55.6819 45.038 55.5886 45.346 55.5419 45.682ZM54.1979 45.682C54.2633 45.1967 54.4173 44.744 54.6599 44.324C54.9026 43.904 55.2059 43.5353 55.5699 43.218C55.9339 42.9007 56.3399 42.6533 56.7879 42.476C57.2453 42.2893 57.7213 42.196 58.2159 42.196C58.7106 42.196 59.1586 42.2893 59.5599 42.476C59.9613 42.6533 60.2973 42.9007 60.5679 43.218C60.8479 43.5353 61.0486 43.904 61.1699 44.324C61.2913 44.744 61.3193 45.1967 61.2539 45.682C61.1793 46.1673 61.0206 46.6247 60.7779 47.054C60.5446 47.474 60.2459 47.8427 59.8819 48.16C59.5179 48.468 59.1073 48.7153 58.6499 48.902C58.2019 49.0793 57.7306 49.168 57.2359 49.168C56.7413 49.168 56.2886 49.0793 55.8779 48.902C55.4766 48.7153 55.1406 48.468 54.8699 48.16C54.5993 47.8427 54.3986 47.474 54.2679 47.054C54.1466 46.6247 54.1233 46.1673 54.1979 45.682ZM63.7144 42.364H64.9744L64.8344 43.386H64.8624C65.0771 43.0313 65.3851 42.7467 65.7864 42.532C66.1878 42.308 66.5984 42.196 67.0184 42.196C67.2238 42.196 67.4058 42.224 67.5644 42.28L67.3124 43.638C67.2098 43.61 67.1071 43.5867 67.0044 43.568C66.9111 43.5493 66.8131 43.54 66.7104 43.54C66.0944 43.54 65.5998 43.7127 65.2264 44.058C64.8531 44.4033 64.6151 44.94 64.5124 45.668L64.0504 49H62.7904L63.7144 42.364ZM69.4141 42.364H70.6741L69.7501 49H68.4901L69.4141 42.364ZM69.4561 39.984C69.4934 39.732 69.6147 39.5173 69.8201 39.34C70.0254 39.1533 70.2541 39.06 70.5061 39.06C70.7581 39.06 70.9634 39.1533 71.1221 39.34C71.2807 39.5173 71.3414 39.732 71.3041 39.984C71.2667 40.236 71.1454 40.4553 70.9401 40.642C70.7347 40.8193 70.5061 40.908 70.2541 40.908C70.0021 40.908 69.7967 40.8193 69.6381 40.642C69.4794 40.4553 69.4187 40.236 69.4561 39.984ZM73.5194 46.144C73.482 46.4333 73.51 46.6993 73.6034 46.942C73.6967 47.1753 73.832 47.376 74.0094 47.544C74.196 47.712 74.4154 47.8427 74.6674 47.936C74.9287 48.0293 75.204 48.076 75.4934 48.076C75.8854 48.076 76.2354 47.9873 76.5434 47.81C76.8607 47.6233 77.164 47.3807 77.4534 47.082L78.2934 47.81C77.472 48.7153 76.4314 49.168 75.1714 49.168C74.6487 49.168 74.1867 49.0793 73.7854 48.902C73.3934 48.7247 73.0714 48.482 72.8194 48.174C72.5674 47.8567 72.39 47.488 72.2874 47.068C72.1847 46.6387 72.1707 46.1767 72.2454 45.682C72.3107 45.1873 72.46 44.73 72.6934 44.31C72.9267 43.8807 73.216 43.512 73.5614 43.204C73.916 42.8867 74.3127 42.6393 74.7514 42.462C75.1994 42.2847 75.6707 42.196 76.1654 42.196C76.7534 42.196 77.234 42.2987 77.6074 42.504C77.99 42.7093 78.2887 42.98 78.5034 43.316C78.718 43.6427 78.8534 44.016 78.9094 44.436C78.9654 44.8467 78.9654 45.2667 78.9094 45.696L78.8394 46.144H73.5194ZM77.6354 45.136C77.6634 44.856 77.654 44.5993 77.6074 44.366C77.5607 44.1327 77.472 43.932 77.3414 43.764C77.2107 43.5867 77.0334 43.4513 76.8094 43.358C76.5854 43.2553 76.3147 43.204 75.9974 43.204C75.6894 43.204 75.4 43.2647 75.1294 43.386C74.8587 43.498 74.616 43.6473 74.4014 43.834C74.196 44.0207 74.028 44.2307 73.8974 44.464C73.7667 44.688 73.6874 44.912 73.6594 45.136H77.6354ZM84.5887 44.03C84.4673 43.8433 84.304 43.6893 84.0987 43.568C83.9027 43.4373 83.646 43.372 83.3287 43.372C83.03 43.372 82.7593 43.4373 82.5167 43.568C82.2833 43.6893 82.1527 43.8713 82.1247 44.114C82.0967 44.31 82.134 44.4687 82.2367 44.59C82.3487 44.7113 82.484 44.8093 82.6427 44.884C82.8107 44.9587 82.988 45.0147 83.1747 45.052C83.3613 45.0893 83.5247 45.122 83.6647 45.15C83.926 45.2153 84.1687 45.2947 84.3927 45.388C84.6167 45.4813 84.8033 45.6027 84.9527 45.752C85.1113 45.9013 85.2233 46.0833 85.2887 46.298C85.354 46.5127 85.368 46.774 85.3307 47.082C85.2747 47.4553 85.1487 47.7773 84.9527 48.048C84.766 48.3093 84.5327 48.524 84.2527 48.692C83.9727 48.86 83.6647 48.9813 83.3287 49.056C83.002 49.1307 82.6753 49.168 82.3487 49.168C81.798 49.168 81.3267 49.084 80.9347 48.916C80.552 48.748 80.2253 48.44 79.9547 47.992L81.0047 47.208C81.182 47.4133 81.3873 47.5953 81.6207 47.754C81.854 47.9127 82.1527 47.992 82.5167 47.992C82.8433 47.992 83.156 47.9267 83.4547 47.796C83.7533 47.656 83.926 47.4413 83.9727 47.152C84.0007 46.9653 83.9633 46.8113 83.8607 46.69C83.7673 46.5687 83.6413 46.4753 83.4827 46.41C83.3333 46.3353 83.1653 46.2793 82.9787 46.242C82.8013 46.1953 82.6473 46.158 82.5167 46.13C82.2553 46.0647 82.008 45.99 81.7747 45.906C81.5413 45.822 81.3407 45.71 81.1727 45.57C81.0047 45.43 80.8787 45.2527 80.7947 45.038C80.72 44.8233 80.706 44.5573 80.7527 44.24C80.7993 43.8947 80.9113 43.596 81.0887 43.344C81.2753 43.0827 81.4993 42.868 81.7607 42.7C82.022 42.532 82.3113 42.406 82.6287 42.322C82.946 42.238 83.2587 42.196 83.5667 42.196C84.0147 42.196 84.43 42.28 84.8127 42.448C85.2047 42.616 85.494 42.896 85.6807 43.288L84.5887 44.03ZM92.1718 43.176C92.5732 42.8493 93.0165 42.6067 93.5018 42.448C93.9965 42.28 94.4772 42.196 94.9438 42.196C95.4292 42.196 95.8398 42.2567 96.1758 42.378C96.5118 42.4993 96.7778 42.6627 96.9738 42.868C97.1698 43.0733 97.3005 43.3113 97.3658 43.582C97.4312 43.8433 97.4452 44.1187 97.4078 44.408L96.9318 47.796C96.8945 48.0293 96.8665 48.244 96.8478 48.44C96.8292 48.636 96.8198 48.8227 96.8198 49H95.6998C95.7092 48.832 95.7185 48.664 95.7278 48.496C95.7465 48.328 95.7698 48.16 95.7978 47.992H95.7698C95.4245 48.4213 95.0465 48.7247 94.6358 48.902C94.2345 49.0793 93.7818 49.168 93.2778 49.168C92.9698 49.168 92.6805 49.126 92.4098 49.042C92.1485 48.958 91.9245 48.832 91.7378 48.664C91.5512 48.496 91.4112 48.2907 91.3178 48.048C91.2338 47.796 91.2152 47.5067 91.2618 47.18C91.3178 46.7507 91.4625 46.3913 91.6958 46.102C91.9292 45.8127 92.2232 45.5793 92.5778 45.402C92.9418 45.2153 93.3478 45.0847 93.7958 45.01C94.2532 44.926 94.7338 44.884 95.2378 44.884H96.1618L96.2038 44.604C96.2318 44.436 96.2225 44.268 96.1758 44.1C96.1385 43.932 96.0638 43.7827 95.9518 43.652C95.8398 43.512 95.6905 43.4047 95.5038 43.33C95.3172 43.246 95.0885 43.204 94.8178 43.204C94.5752 43.204 94.3558 43.2273 94.1598 43.274C93.9732 43.3207 93.8005 43.3813 93.6418 43.456C93.4925 43.5213 93.3478 43.6007 93.2078 43.694C93.0772 43.7873 92.9465 43.876 92.8158 43.96L92.1718 43.176ZM95.3638 45.808C95.0652 45.808 94.7572 45.8267 94.4398 45.864C94.1225 45.892 93.8285 45.9527 93.5578 46.046C93.2872 46.1393 93.0585 46.27 92.8718 46.438C92.6852 46.606 92.5732 46.8207 92.5358 47.082C92.4798 47.4647 92.5685 47.74 92.8018 47.908C93.0352 48.076 93.3712 48.16 93.8098 48.16C94.1552 48.16 94.4538 48.104 94.7058 47.992C94.9672 47.8707 95.1865 47.7167 95.3638 47.53C95.5412 47.3433 95.6765 47.138 95.7698 46.914C95.8725 46.6807 95.9378 46.452 95.9658 46.228L96.0358 45.808H95.3638ZM99.9356 42.364H101.196L101.056 43.386H101.084C101.298 43.0313 101.616 42.7467 102.036 42.532C102.456 42.308 102.922 42.196 103.436 42.196C103.753 42.196 104.052 42.2473 104.332 42.35C104.612 42.4433 104.845 42.5927 105.032 42.798C105.228 43.0033 105.368 43.2693 105.452 43.596C105.536 43.9133 105.545 44.2913 105.48 44.73L104.892 49H103.632L104.178 45.08C104.215 44.772 104.206 44.5107 104.15 44.296C104.103 44.072 104.019 43.8947 103.898 43.764C103.786 43.624 103.641 43.526 103.464 43.47C103.286 43.4047 103.1 43.372 102.904 43.372C102.642 43.372 102.39 43.414 102.148 43.498C101.914 43.582 101.7 43.7173 101.504 43.904C101.317 44.0813 101.158 44.31 101.028 44.59C100.897 44.87 100.804 45.2013 100.748 45.584L100.272 49H99.0116L99.9356 42.364ZM113.861 49H112.601L112.727 48.048H112.699C112.4 48.4027 112.027 48.678 111.579 48.874C111.131 49.07 110.683 49.168 110.235 49.168C109.722 49.168 109.269 49.0793 108.877 48.902C108.485 48.7247 108.163 48.4773 107.911 48.16C107.668 47.8427 107.496 47.474 107.393 47.054C107.29 46.634 107.276 46.1767 107.351 45.682C107.416 45.1873 107.561 44.73 107.785 44.31C108.009 43.8807 108.289 43.512 108.625 43.204C108.961 42.8867 109.348 42.6393 109.787 42.462C110.226 42.2847 110.702 42.196 111.215 42.196C111.691 42.196 112.12 42.2987 112.503 42.504C112.895 42.7 113.184 42.9707 113.371 43.316H113.399L114.085 38.416H115.345L113.861 49ZM110.557 47.992C110.893 47.992 111.201 47.936 111.481 47.824C111.77 47.7027 112.022 47.544 112.237 47.348C112.452 47.1427 112.629 46.9 112.769 46.62C112.918 46.3307 113.016 46.018 113.063 45.682C113.11 45.346 113.1 45.038 113.035 44.758C112.979 44.4687 112.867 44.226 112.699 44.03C112.54 43.8247 112.335 43.666 112.083 43.554C111.831 43.4327 111.537 43.372 111.201 43.372C110.865 43.372 110.552 43.4327 110.263 43.554C109.983 43.666 109.731 43.8247 109.507 44.03C109.292 44.226 109.115 44.4687 108.975 44.758C108.835 45.038 108.742 45.346 108.695 45.682C108.648 46.018 108.653 46.3307 108.709 46.62C108.774 46.9 108.886 47.1427 109.045 47.348C109.204 47.544 109.409 47.7027 109.661 47.824C109.922 47.936 110.221 47.992 110.557 47.992ZM121.99 38.416H123.25L122.564 43.316H122.592C122.863 42.9707 123.222 42.7 123.67 42.504C124.118 42.2987 124.58 42.196 125.056 42.196C125.569 42.196 126.017 42.2847 126.4 42.462C126.792 42.6393 127.114 42.8867 127.366 43.204C127.618 43.512 127.791 43.8807 127.884 44.31C127.987 44.73 128.005 45.1873 127.94 45.682C127.865 46.1767 127.721 46.634 127.506 47.054C127.291 47.474 127.016 47.8427 126.68 48.16C126.344 48.4773 125.952 48.7247 125.504 48.902C125.065 49.0793 124.589 49.168 124.076 49.168C123.628 49.168 123.203 49.07 122.802 48.874C122.41 48.678 122.116 48.4027 121.92 48.048H121.892L121.766 49H120.506L121.99 38.416ZM124.09 47.992C124.426 47.992 124.734 47.936 125.014 47.824C125.303 47.7027 125.555 47.544 125.77 47.348C125.985 47.1427 126.162 46.9 126.302 46.62C126.451 46.3307 126.549 46.018 126.596 45.682C126.643 45.346 126.633 45.038 126.568 44.758C126.512 44.4687 126.4 44.226 126.232 44.03C126.073 43.8247 125.868 43.666 125.616 43.554C125.364 43.4327 125.07 43.372 124.734 43.372C124.398 43.372 124.085 43.4327 123.796 43.554C123.516 43.666 123.264 43.8247 123.04 44.03C122.825 44.226 122.648 44.4687 122.508 44.758C122.368 45.038 122.275 45.346 122.228 45.682C122.181 46.018 122.186 46.3307 122.242 46.62C122.307 46.9 122.419 47.1427 122.578 47.348C122.737 47.544 122.942 47.7027 123.194 47.824C123.455 47.936 123.754 47.992 124.09 47.992ZM130.325 43.176C130.726 42.8493 131.169 42.6067 131.655 42.448C132.149 42.28 132.63 42.196 133.097 42.196C133.582 42.196 133.993 42.2567 134.329 42.378C134.665 42.4993 134.931 42.6627 135.127 42.868C135.323 43.0733 135.453 43.3113 135.519 43.582C135.584 43.8433 135.598 44.1187 135.561 44.408L135.085 47.796C135.047 48.0293 135.019 48.244 135.001 48.44C134.982 48.636 134.973 48.8227 134.973 49H133.853C133.862 48.832 133.871 48.664 133.881 48.496C133.899 48.328 133.923 48.16 133.951 47.992H133.923C133.577 48.4213 133.199 48.7247 132.789 48.902C132.387 49.0793 131.935 49.168 131.431 49.168C131.123 49.168 130.833 49.126 130.563 49.042C130.301 48.958 130.077 48.832 129.891 48.664C129.704 48.496 129.564 48.2907 129.471 48.048C129.387 47.796 129.368 47.5067 129.415 47.18C129.471 46.7507 129.615 46.3913 129.849 46.102C130.082 45.8127 130.376 45.5793 130.731 45.402C131.095 45.2153 131.501 45.0847 131.949 45.01C132.406 44.926 132.887 44.884 133.391 44.884H134.315L134.357 44.604C134.385 44.436 134.375 44.268 134.329 44.1C134.291 43.932 134.217 43.7827 134.105 43.652C133.993 43.512 133.843 43.4047 133.657 43.33C133.47 43.246 133.241 43.204 132.971 43.204C132.728 43.204 132.509 43.2273 132.313 43.274C132.126 43.3207 131.953 43.3813 131.795 43.456C131.645 43.5213 131.501 43.6007 131.361 43.694C131.23 43.7873 131.099 43.876 130.969 43.96L130.325 43.176ZM133.517 45.808C133.218 45.808 132.91 45.8267 132.593 45.864C132.275 45.892 131.981 45.9527 131.711 46.046C131.44 46.1393 131.211 46.27 131.025 46.438C130.838 46.606 130.726 46.8207 130.689 47.082C130.633 47.4647 130.721 47.74 130.955 47.908C131.188 48.076 131.524 48.16 131.963 48.16C132.308 48.16 132.607 48.104 132.859 47.992C133.12 47.8707 133.339 47.7167 133.517 47.53C133.694 47.3433 133.829 47.138 133.923 46.914C134.025 46.6807 134.091 46.452 134.119 46.228L134.189 45.808H133.517ZM143.814 48.944C143.74 49.448 143.586 49.9053 143.352 50.316C143.128 50.736 142.834 51.0953 142.47 51.394C142.116 51.702 141.7 51.94 141.224 52.108C140.758 52.276 140.254 52.36 139.712 52.36C139.078 52.36 138.508 52.2713 138.004 52.094C137.5 51.9167 137.043 51.6087 136.632 51.17L137.626 50.106C137.906 50.4607 138.224 50.7267 138.578 50.904C138.942 51.0907 139.367 51.184 139.852 51.184C140.319 51.184 140.716 51.114 141.042 50.974C141.369 50.8433 141.635 50.6707 141.84 50.456C142.055 50.2413 142.218 49.994 142.33 49.714C142.442 49.4433 142.522 49.168 142.568 48.888L142.694 47.908H142.652C142.354 48.3093 141.985 48.608 141.546 48.804C141.108 48.9907 140.66 49.084 140.202 49.084C139.717 49.084 139.278 49 138.886 48.832C138.494 48.6547 138.168 48.4167 137.906 48.118C137.654 47.81 137.472 47.4507 137.36 47.04C137.248 46.62 137.23 46.1673 137.304 45.682C137.37 45.1967 137.51 44.744 137.724 44.324C137.948 43.8947 138.228 43.5213 138.564 43.204C138.9 42.8867 139.288 42.6393 139.726 42.462C140.174 42.2847 140.655 42.196 141.168 42.196C141.616 42.196 142.036 42.294 142.428 42.49C142.83 42.686 143.128 42.9613 143.324 43.316H143.352L143.478 42.364H144.738L143.814 48.944ZM141.154 43.372C140.818 43.372 140.506 43.4327 140.216 43.554C139.936 43.666 139.684 43.8247 139.46 44.03C139.246 44.226 139.068 44.4687 138.928 44.758C138.788 45.038 138.695 45.346 138.648 45.682C138.546 46.354 138.662 46.8953 138.998 47.306C139.334 47.7073 139.838 47.908 140.51 47.908C141.182 47.908 141.742 47.7073 142.19 47.306C142.638 46.8953 142.914 46.354 143.016 45.682C143.063 45.346 143.054 45.038 142.988 44.758C142.932 44.4687 142.82 44.226 142.652 44.03C142.494 43.8247 142.288 43.666 142.036 43.554C141.784 43.4327 141.49 43.372 141.154 43.372ZM150.357 44.03C150.236 43.8433 150.072 43.6893 149.867 43.568C149.671 43.4373 149.414 43.372 149.097 43.372C148.798 43.372 148.528 43.4373 148.285 43.568C148.052 43.6893 147.921 43.8713 147.893 44.114C147.865 44.31 147.902 44.4687 148.005 44.59C148.117 44.7113 148.252 44.8093 148.411 44.884C148.579 44.9587 148.756 45.0147 148.943 45.052C149.13 45.0893 149.293 45.122 149.433 45.15C149.694 45.2153 149.937 45.2947 150.161 45.388C150.385 45.4813 150.572 45.6027 150.721 45.752C150.88 45.9013 150.992 46.0833 151.057 46.298C151.122 46.5127 151.136 46.774 151.099 47.082C151.043 47.4553 150.917 47.7773 150.721 48.048C150.534 48.3093 150.301 48.524 150.021 48.692C149.741 48.86 149.433 48.9813 149.097 49.056C148.77 49.1307 148.444 49.168 148.117 49.168C147.566 49.168 147.095 49.084 146.703 48.916C146.32 48.748 145.994 48.44 145.723 47.992L146.773 47.208C146.95 47.4133 147.156 47.5953 147.389 47.754C147.622 47.9127 147.921 47.992 148.285 47.992C148.612 47.992 148.924 47.9267 149.223 47.796C149.522 47.656 149.694 47.4413 149.741 47.152C149.769 46.9653 149.732 46.8113 149.629 46.69C149.536 46.5687 149.41 46.4753 149.251 46.41C149.102 46.3353 148.934 46.2793 148.747 46.242C148.57 46.1953 148.416 46.158 148.285 46.13C148.024 46.0647 147.776 45.99 147.543 45.906C147.31 45.822 147.109 45.71 146.941 45.57C146.773 45.43 146.647 45.2527 146.563 45.038C146.488 44.8233 146.474 44.5573 146.521 44.24C146.568 43.8947 146.68 43.596 146.857 43.344C147.044 43.0827 147.268 42.868 147.529 42.7C147.79 42.532 148.08 42.406 148.397 42.322C148.714 42.238 149.027 42.196 149.335 42.196C149.783 42.196 150.198 42.28 150.581 42.448C150.973 42.616 151.262 42.896 151.449 43.288L150.357 44.03Z" fill="#4F4F4F"/>
</svg>
